<svg xmlns="http://www.w3.org/2000/svg" viewBox="-3.7 0 32 32" width="200" height="200">
  <g fill="#2b2b2b" stroke="#2b2b2b" stroke-width="0.48">
    <path d="M7.99 22.96l-3.37-.58-5.02-2.5v-4.46L9.74 6.04l.67-1.34.93-.17s.56-.77.84-.74c.28-.03.84.74.84.74l.94.17.66 1.34 10.14 9.38v4.45l-5.02 2.5-3.36.59-4.2-1.06z" />
  </g>
  <g fill="none">
    <path d="M-.63 19.22h9.1l3.84 2.68 3.85-2.68h8.82M15.35 5.44l-1.07 1.22m-5-1.22l1.06 1.22.79 8.33 1.18 6.9.36 1.35m-.72 0l.36-1.34 1.19-6.91.78-8.33h-3.94" fill="none" stroke="#e8e8e8" stroke-width="0.72" />
  </g>
</svg>