<svg xmlns="http://www.w3.org/2000/svg" viewBox="-4.2 -1 32 32" width="200" height="200">
  <g fill="#2b2b2b" stroke="#2b2b2b" stroke-width="0.44000000000000006">
    <path d="M11.7 26.5H8v-.7s0-.3.3-.6l2.6-2.4s-.2-1-.3-4H3v-2.4l.3-.6 6.3-5.5.2-1.3s.3-.2.6-.1V7.8s0-.2.2 0c0 0 0-3.5.5-6.2 0 0 .3-1.2.7-1.2.4 0 .7 1.2.7 1.2.5 2.7.5 6.2.5 6.2 0-.2.2 0 .2 0v1l.6.2.2 1.3 6.3 5.5c.3.4.2.6.2.6v2.3h-7.4c-.1 3-.3 4-.3 4l2.6 2.5c.3.3.3.6.3.6v.7H12l-.1.5-.2-.5z" />
  </g>
  <g fill="none">
    <path d="M9.7 20.4l.9-1.7-1-8.4-.9-1.4M14 20.4l-.8-1.7.9-8.4 1-1.4" fill="none" stroke="#e8e8e8" stroke-width="0.66" />
  </g>
</svg>